<svg id="Layer_1" enable-background="new 0 0 508.651 508.651" height="512" viewBox="0 0 508.651 508.651" width="512" xmlns="http://www.w3.org/2000/svg"><path d="m468.881 167.536h-58.995l-48.603-104.228c-11.718-25.128-41.694-36.037-66.822-24.321-25.188 11.745-36.068 41.632-24.322 66.822l28.784 61.727h-89.193l28.784-61.727c5.676-12.173 6.272-25.827 1.679-38.448-15.287-41.991-74.016-44.385-92.823-4.053l-48.603 104.228h-58.996c-25.756 0-44.733 24.121-38.618 49.175l52.713 216.036c5.979 24.508 27.774 41.625 53.001 41.625h294.918c25.227 0 47.021-17.117 53.001-41.625l52.713-216.036c6.107-25.021-12.828-49.175-38.618-49.175zm-169.74-75.25c-5.641-12.097 3.238-26.009 16.543-26.009 6.89 0 13.499 3.911 16.598 10.555l42.296 90.704h-40.347zm-122.77-15.454c4.261-9.137 15.16-13.104 24.297-8.843s13.104 15.16 8.844 24.297l-35.09 75.25h-40.347zm300.04 132.293-52.713 216.037c-2.473 10.133-11.483 17.209-21.913 17.209h-294.918c-10.43 0-19.44-7.077-21.913-17.21l-52.713-216.036c-1.191-4.878 2.489-9.589 7.53-9.589h429.109c5.043 0 8.721 4.711 7.531 9.589z"/><path d="m254.326 248.338c-8.837 0-16 7.164-16 16v113.232c0 8.836 7.163 16 16 16s16-7.164 16-16v-113.232c0-8.837-7.163-16-16-16z"/><path d="m364.476 248.723c-8.622-1.926-17.178 3.501-19.105 12.124l-25.314 113.232c-2.23 9.976 5.356 19.494 15.629 19.494 7.326 0 13.935-5.065 15.6-12.513l25.314-113.232c1.927-8.623-3.5-17.177-12.124-19.105z"/><path d="m163.281 260.847c-1.929-8.624-10.479-14.053-19.105-12.124-8.623 1.928-14.051 10.482-12.123 19.105l25.314 113.232c1.665 7.448 8.272 12.513 15.6 12.513 10.263 0 17.861-9.51 15.629-19.494z"/></svg>